<?xml version="1.0" encoding="UTF-8"?>
<svg version="1.1" xmlns="http://www.w3.org/2000/svg" width="523" height="473">
<path d="M0 0 C172.59 0 345.18 0 523 0 C523 156.09 523 312.18 523 473 C350.41 473 177.82 473 0 473 C0 316.91 0 160.82 0 0 Z " fill="#FFFEFE" transform="translate(0,0)"/>
<path d="M0 0 C22.82323636 16.63599706 36.27949727 39.72301915 40.71704102 67.5222168 C42.32834418 79.31032206 41.6522781 90.91318976 39.40234375 102.55078125 C39.15470181 103.99344736 38.9073227 105.4361586 38.66015625 106.87890625 C36.44500202 119.13480885 32.52094691 130.21901744 27.40234375 141.55078125 C27.01191895 142.4207373 26.62149414 143.29069336 26.21923828 144.18701172 C15.1513277 168.44599234 -0.51969338 190.17803454 -17.59765625 210.55078125 C-18.03948242 211.07897461 -18.48130859 211.60716797 -18.93652344 212.15136719 C-30.37899765 225.79156088 -42.58292679 238.62655679 -55.12539673 251.25375366 C-56.2723595 252.40888653 -57.41785196 253.56548119 -58.56185913 254.72354126 C-60.17796737 256.3574286 -61.80077002 257.98434786 -63.42578125 259.609375 C-64.16393822 260.35823471 -64.16393822 260.35823471 -64.91700745 261.1222229 C-68.36848794 264.55078125 -68.36848794 264.55078125 -70.59765625 264.55078125 C-70.59765625 265.21078125 -70.59765625 265.87078125 -70.59765625 266.55078125 C-71.9609375 267.92578125 -71.9609375 267.92578125 -73.91015625 269.55078125 C-77.31413073 272.43936522 -80.62848023 275.39871803 -83.91015625 278.42578125 C-88.37288457 282.49618181 -92.96023625 286.35255034 -97.66015625 290.14453125 C-100.96119957 292.84857737 -104.1850821 295.63214322 -107.41015625 298.42578125 C-114.2958505 304.36822971 -121.39754739 309.9961181 -128.59765625 315.55078125 C-129.71358407 316.41530985 -130.82947001 317.27989251 -131.9453125 318.14453125 C-134.09580745 319.80892706 -136.2539832 321.46256838 -138.41796875 323.109375 C-140.6068738 324.77772305 -142.76135995 326.48158408 -144.90234375 328.2109375 C-145.96739599 329.05345106 -147.03249825 329.8959014 -148.09765625 330.73828125 C-149.03609375 331.49496094 -149.97453125 332.25164062 -150.94140625 333.03125 C-153.59765625 334.55078125 -153.59765625 334.55078125 -155.95703125 334.67578125 C-160.00679787 332.95043689 -163.03054842 330.21846518 -166.34765625 327.36328125 C-167.86953756 326.08042765 -169.39168039 324.79788425 -170.9140625 323.515625 C-172.07832764 322.52731689 -172.07832764 322.52731689 -173.26611328 321.51904297 C-176.20397807 319.03893135 -179.17644804 316.60306124 -182.15283203 314.16943359 C-188.7467135 308.77745953 -195.26403285 303.30620357 -201.70947266 297.73779297 C-205.14329026 294.77650996 -208.62536876 291.89187307 -212.16015625 289.05078125 C-216.8972918 285.20797217 -221.38549856 281.14561166 -225.83227539 276.97460938 C-228.69396543 274.29180356 -231.59197578 271.6655689 -234.55078125 269.08984375 C-245.68589339 259.39113592 -256.20981978 249.03834863 -266.66015625 238.61328125 C-267.39904587 237.87827393 -267.39904587 237.87827393 -268.15286255 237.12841797 C-273.85580854 231.44915146 -279.37748565 225.67944584 -284.59765625 219.55078125 C-285.64271771 218.35908425 -286.68957465 217.16895925 -287.73828125 215.98046875 C-312.34599868 187.91430604 -333.32072303 158.04971168 -345.59765625 122.55078125 C-345.87448242 121.78121094 -346.15130859 121.01164063 -346.43652344 120.21875 C-350.53497529 108.47362575 -351.06418353 96.93284979 -351.09765625 84.61328125 C-351.10466553 83.49116241 -351.10466553 83.49116241 -351.11181641 82.34637451 C-351.13513463 72.69183472 -350.26863216 63.89716792 -347.59765625 54.55078125 C-347.16308105 53.02420898 -347.16308105 53.02420898 -346.71972656 51.46679688 C-339.36476714 26.67818815 -322.7238564 5.11447889 -300.18823242 -7.5793457 C-283.34129329 -16.65528201 -266.3808619 -19.6995548 -247.34765625 -19.76171875 C-245.44669189 -19.77017822 -245.44669189 -19.77017822 -243.50732422 -19.77880859 C-232.14321023 -19.69122104 -221.73300913 -18.3287753 -211.09765625 -14.26171875 C-210.28377441 -13.95492187 -209.46989258 -13.648125 -208.63134766 -13.33203125 C-186.83470093 -4.86395839 -169.10697695 11.31109976 -157.59765625 31.55078125 C-156.83203125 33.984375 -156.83203125 33.984375 -156.59765625 35.55078125 C-154.06575537 33.32745579 -152.43080469 30.7855149 -150.69287109 27.91821289 C-145.82059142 19.88861779 -140.13363391 13.25769987 -133.59765625 6.55078125 C-132.74300781 5.58591797 -132.74300781 5.58591797 -131.87109375 4.6015625 C-123.4702868 -4.63932515 -111.34013573 -11.58110786 -99.59765625 -15.44921875 C-98.60137207 -15.78759766 -98.60137207 -15.78759766 -97.58496094 -16.1328125 C-65.47097035 -26.76563265 -27.51402628 -19.19955757 0 0 Z " fill="#FF0101" transform="translate(416.59765625,81.44921875)"/>
<path d="M0 0 C1.2065625 0.0309375 1.2065625 0.0309375 2.4375 0.0625 C3.98039561 4.92777457 4.75014681 9.24819657 5 14.3828125 C5.03609375 15.07043167 5.0721875 15.75805084 5.109375 16.46650696 C5.18594686 17.93988612 5.25893209 19.41345539 5.32861328 20.88717651 C5.51552144 24.83576855 5.7287847 28.78298031 5.9375 32.73046875 C5.97883057 33.52705399 6.02016113 34.32363922 6.06274414 35.1443634 C6.43613546 42.26925975 6.92121685 49.38407391 7.4375 56.5 C8.0154139 64.53727355 8.5355382 72.57503961 8.97265625 80.62109375 C9.01699799 81.4366423 9.06133972 82.25219086 9.10702515 83.092453 C9.32359668 87.10230098 9.53491006 91.11236367 9.74023438 95.12280273 C9.81767948 96.58968251 9.89515212 98.05656084 9.97265625 99.5234375 C10.07139038 101.45388916 10.07139038 101.45388916 10.17211914 103.42333984 C10.43432796 107.01900194 10.88397657 110.5026184 11.4375 114.0625 C11.9015625 112.6084375 11.9015625 112.6084375 12.375 111.125 C13.4375 108.0625 13.4375 108.0625 14.4375 107.0625 C16.14304357 106.98679153 17.84897584 106.91577818 19.55566406 106.87304688 C26.89511836 106.87170449 26.89511836 106.87170449 33.1875 103.5625 C33.93 102.7375 34.6725 101.9125 35.4375 101.0625 C40.04912392 99.52529203 44.908153 99.05742991 49.51171875 100.88671875 C52.12163658 102.3585592 54.31840084 103.94340084 56.4375 106.0625 C58.37431136 106.33904388 58.37431136 106.33904388 60.5703125 106.2578125 C61.37597656 106.25136719 62.18164062 106.24492187 63.01171875 106.23828125 C63.85347656 106.22152344 64.69523438 106.20476562 65.5625 106.1875 C66.41199219 106.17847656 67.26148438 106.16945313 68.13671875 106.16015625 C70.23709884 106.13655647 72.33733444 106.10068483 74.4375 106.0625 C74.85902344 104.99128906 75.28054688 103.92007813 75.71484375 102.81640625 C76.26809319 101.41921698 76.82148602 100.02208449 77.375 98.625 C77.65279297 97.91794922 77.93058594 97.21089844 78.21679688 96.48242188 C80.32421875 91.17578125 80.32421875 91.17578125 81.4375 90.0625 C83.10367115 90.02186168 84.77138095 90.019779 86.4375 90.0625 C87.25131795 91.99944678 88.06350916 93.93707711 88.875 95.875 C89.32746094 96.95394531 89.77992188 98.03289062 90.24609375 99.14453125 C91.04125013 101.0920126 91.77229648 103.06688943 92.4375 105.0625 C93.4275 105.3925 94.4175 105.7225 95.4375 106.0625 C95.42521866 105.08537552 95.41293732 104.10825104 95.40028381 103.10151672 C95.31788681 93.59314877 95.72209994 84.21294768 96.49609375 74.73046875 C96.60640728 73.31916461 96.71609773 71.90781166 96.82521057 70.49641418 C97.11055005 66.82259897 97.40276151 63.14936756 97.69702148 59.47625732 C98.16484113 53.62450099 98.62308175 47.7719878 99.07966995 41.91934586 C99.19017995 40.50737277 99.30137795 39.09545335 99.41328049 37.68358994 C100.13583162 28.56465937 100.78302271 19.4495275 101.03672791 10.30351257 C101.22452127 5.27547873 101.22452127 5.27547873 103.4375 3.0625 C106.0625 2.9375 106.0625 2.9375 108.4375 3.0625 C109.69488928 6.83466785 109.85725353 10.52302525 110.12109375 14.4609375 C110.18084381 15.31077209 110.24059387 16.16060669 110.30215454 17.03619385 C110.49741932 19.83634962 110.68643843 22.63688542 110.875 25.4375 C111.00899979 27.38590725 111.14303335 29.33431217 111.27709961 31.28271484 C112.17734703 44.50934848 112.93960611 57.74007059 113.61734009 70.97976685 C114.30412008 84.36413761 115.25036022 97.71194895 116.4375 111.0625 C117.4275 109.0825 117.4275 109.0825 118.4375 107.0625 C119.66726563 107.04832031 120.89703125 107.03414063 122.1640625 107.01953125 C123.79691158 106.9726103 125.42972292 106.92436303 127.0625 106.875 C127.87074219 106.86919922 128.67898438 106.86339844 129.51171875 106.85742188 C135.58805462 106.6351169 138.08311079 105.26651241 142.4375 101.0625 C146.56264818 99.68745061 150.13354798 99.34084873 154.4375 100.0625 C156.04882812 101.40014648 156.04882812 101.40014648 157.65625 103.05859375 C163.41896292 107.61463953 170.4245857 106.81278183 177.40258789 106.625 C179.76186897 106.56218399 182.11847758 106.54299757 184.47851562 106.53125 C185.98180351 106.51292539 187.48506425 106.49217875 188.98828125 106.46875 C189.69140945 106.46025024 190.39453766 106.45175049 191.11897278 106.44299316 C194.75156541 106.33637162 196.33270495 106.13236337 199.4375 104.0625 C202.75990324 104.3866369 204.04526303 104.67026303 206.4375 107.0625 C206.771228 110.19954316 206.96599028 112.22804166 205.25 114.9375 C202.85159825 116.42616316 201.20943929 116.35428308 198.4375 116.0625 C198.1075 115.7325 197.7775 115.4025 197.4375 115.0625 C194.78214178 114.97648028 192.14770265 114.9498686 189.4921875 114.95703125 C187.84113284 114.94356555 186.19009031 114.92854065 184.5390625 114.91210938 C181.93186804 114.8893466 179.32602979 114.87493505 176.71875 114.88745117 C174.20473929 114.89631344 171.6934196 114.86725148 169.1796875 114.83203125 C168.02459183 114.85037773 168.02459183 114.85037773 166.84616089 114.86909485 C161.42131444 114.74882356 158.796952 113.29387784 155.00320435 109.42118835 C153.32475874 107.74389105 153.32475874 107.74389105 149.9375 107.3125 C146.20017419 108.11335553 145.90056153 108.44370561 143.5 111.0625 C140.26378518 114.25376739 137.58743129 114.43802781 133.23803711 114.484375 C129.96310002 114.41578245 126.70660827 114.27442299 123.4375 114.0625 C123.36233154 115.07727417 123.36233154 115.07727417 123.28564453 116.11254883 C123.21458496 117.07185303 123.14352539 118.03115723 123.0703125 119.01953125 C122.99039063 120.10049072 122.91046875 121.1814502 122.828125 122.29516602 C122.64963414 124.7006913 122.46992787 127.10612669 122.2890625 129.51147461 C121.80757886 135.93836176 121.34699183 142.3654789 120.9296875 148.796875 C120.84702637 150.02559326 120.76436523 151.25431152 120.67919922 152.52026367 C120.51980127 154.89754729 120.36761919 157.27532725 120.22314453 159.65356445 C120.14950684 160.72823975 120.07586914 161.80291504 120 162.91015625 C119.93941406 163.85898682 119.87882813 164.80781738 119.81640625 165.78540039 C119.4375 168.0625 119.4375 168.0625 117.4375 170.0625 C114.8125 169.6875 114.8125 169.6875 112.4375 169.0625 C111.30390159 162.27151561 110.95161546 155.44865917 110.53515625 148.58203125 C110.45197573 147.24662051 110.36850908 145.91122757 110.28477478 144.57585144 C110.06452944 141.05388569 109.84739693 137.53173564 109.63116455 134.00952148 C109.24857887 127.78346913 108.86119574 121.55771451 108.47265625 115.33203125 C108.43057667 114.65611057 108.38849709 113.9801899 108.34514236 113.28378677 C107.46680071 99.20337576 106.47311981 85.13224403 105.4375 71.0625 C103.65241825 84.04678029 102.82416859 97.01939177 102.13525391 110.09936523 C102.09599289 110.81394394 102.05673187 111.52852264 102.01628113 112.26475525 C101.90805969 114.23945235 101.80531735 116.21444748 101.70288086 118.18945312 C101.4375 121.0625 101.4375 121.0625 100.4375 122.0625 C98.77132885 122.10313832 97.10361905 122.105221 95.4375 122.0625 C95.27894531 121.50820313 95.12039063 120.95390625 94.95703125 120.3828125 C94.24428674 118.16976049 93.51551284 116.12441345 92.4375 114.0625 C90.77677151 113.38117549 89.109733 112.71507873 87.4375 112.0625 C85.78021115 109.48568314 84.66742945 106.88678244 83.4375 104.0625 C80.9625 109.0125 80.9625 109.0125 78.4375 114.0625 C74.58162638 114.22504268 70.73265026 114.34368338 66.875 114.4375 C65.78896484 114.48777344 64.70292969 114.53804688 63.58398438 114.58984375 C54.50011353 114.75550705 54.50011353 114.75550705 50.40625 111.0859375 C49.91447266 110.54114746 49.42269531 109.99635742 48.91601562 109.43505859 C47.11249323 107.76078467 45.9208952 107.53702349 43.5 107.3125 C39.98275356 107.55414289 38.35588506 108.76318965 35.75 111.0625 C31.15193747 114.98790008 26.82417791 114.55140963 21 114.2734375 C20.154375 114.20382812 19.30875 114.13421875 18.4375 114.0625 C18.36402344 115.45082031 18.36402344 115.45082031 18.2890625 116.8671875 C17.78598287 126.04284631 17.17181235 135.21021745 16.5 144.375 C16.42539551 145.44669434 16.35079102 146.51838867 16.27392578 147.62255859 C14.76277642 167.73722358 14.76277642 167.73722358 12.4375 170.0625 C9.9375 170.1875 9.9375 170.1875 7.4375 170.0625 C5.51906801 168.14406801 6.04304292 164.69345384 5.88085938 162.13793945 C5.83355179 161.41235336 5.7862442 160.68676727 5.73750305 159.93919373 C5.58087017 157.51832413 5.43098551 155.09708653 5.28125 152.67578125 C5.17332248 150.9811128 5.06504058 149.28646688 4.9564209 147.59184265 C4.72833648 144.01819001 4.50336436 140.44435954 4.28076172 136.87036133 C3.99946271 132.3550566 3.71252638 127.84013475 3.42349243 123.32531929 C2.26707556 105.24466495 1.13531312 87.16788635 0.4375 69.0625 C-1.08364238 86.71834728 -2.38547493 104.38063144 -3.5625 122.0625 C-5.2125 122.3925 -6.8625 122.7225 -8.5625 123.0625 C-9.5525 120.0925 -10.5425 117.1225 -11.5625 114.0625 C-13.5425 114.0625 -15.5225 114.0625 -17.5625 114.0625 C-18.5525 111.0925 -19.5425 108.1225 -20.5625 105.0625 C-21.2225 105.0625 -21.8825 105.0625 -22.5625 105.0625 C-22.68625 105.990625 -22.81 106.91875 -22.9375 107.875 C-23.5625 111.0625 -23.5625 111.0625 -25.5625 114.0625 C-27.54934692 114.42326355 -27.54934692 114.42326355 -30.01220703 114.40307617 C-30.93301056 114.40284958 -31.85381409 114.40262299 -32.80252075 114.40238953 C-33.79839203 114.38690567 -34.79426331 114.37142181 -35.8203125 114.35546875 C-36.83850067 114.35122391 -37.85668884 114.34697906 -38.9057312 114.34260559 C-42.16658673 114.32577579 -45.42683041 114.28811546 -48.6875 114.25 C-50.89452234 114.23495874 -53.10155434 114.22126937 -55.30859375 114.20898438 C-60.72677223 114.1758583 -66.14459242 114.12561653 -71.5625 114.0625 C-71.94468767 112.40635343 -72.27645102 110.73792976 -72.5625 109.0625 C-71.5625 108.0625 -71.5625 108.0625 -67.59350586 107.94897461 C-65.82144393 107.9491338 -64.0493774 107.95483215 -62.27734375 107.96484375 C-61.34652481 107.9662587 -60.41570587 107.96767365 -59.4566803 107.96913147 C-56.47108809 107.97474828 -53.48556971 107.9873036 -50.5 108 C-48.48112087 108.00501284 -46.46224057 108.00957612 -44.44335938 108.01367188 C-39.48304428 108.02472317 -34.52278468 108.04199905 -29.5625 108.0625 C-29.36261475 107.23903076 -29.16272949 106.41556152 -28.95678711 105.56713867 C-28.55858765 103.94642456 -28.55858765 103.94642456 -28.15234375 102.29296875 C-27.8905835 101.22199951 -27.62882324 100.15103027 -27.35913086 99.04760742 C-26.47279625 95.72636524 -25.49396531 92.92106866 -23.5625 90.0625 C-21.375 89.1875 -21.375 89.1875 -19.5625 89.0625 C-17.05960399 92.87063118 -15.65380921 96.50940994 -14.375 100.875 C-14.03082031 102.03644531 -13.68664062 103.19789063 -13.33203125 104.39453125 C-13.07808594 105.27496094 -12.82414062 106.15539062 -12.5625 107.0625 C-11.5725 107.0625 -10.5825 107.0625 -9.5625 107.0625 C-9.52286133 106.12535156 -9.48322266 105.18820312 -9.44238281 104.22265625 C-8.41982079 80.36369348 -7.10556072 56.52528673 -5.63456726 32.69030762 C-5.49960496 30.49357013 -5.36645212 28.29672949 -5.23376465 26.09985352 C-4.9833804 21.96071831 -4.72471376 17.82214439 -4.46484375 13.68359375 C-4.38884445 12.42195908 -4.31284515 11.1603244 -4.23454285 9.86045837 C-4.16093033 8.7133992 -4.08731781 7.56634003 -4.01147461 6.38452148 C-3.94866806 5.37646957 -3.88586151 4.36841766 -3.82115173 3.32981873 C-3.45355024 0.10745579 -3.27852355 0.07996399 0 0 Z " fill="#FFF1F1" transform="translate(192.5625,153.9375)"/>
<path d="M0 0 C1.64943584 2.8980551 2.24927937 4.96570217 2.23046875 8.29296875 C2.22853516 9.08767578 2.22660156 9.88238281 2.22460938 10.70117188 C2.21236328 11.52166016 2.20011719 12.34214844 2.1875 13.1875 C2.18685547 14.01958984 2.18621094 14.85167969 2.18554688 15.70898438 C2.14043257 21.85956743 2.14043257 21.85956743 1 23 C0.77329092 24.55753051 0.60564908 26.12377359 0.46484375 27.69140625 C0.37783203 28.63564453 0.29082031 29.57988281 0.20117188 30.55273438 C0.11416016 31.54595703 0.02714844 32.53917969 -0.0625 33.5625 C-0.19881836 35.05813477 -0.19881836 35.05813477 -0.33789062 36.58398438 C-0.56258814 39.05565702 -0.78310351 41.52763256 -1 44 C-1.33 44 -1.66 44 -2 44 C-2.41156538 29.27510544 -1.16267271 14.66946626 0 0 Z " fill="#FF3F3F" transform="translate(192,219)"/>
<path d="M0 0 C0.66 0.33 1.32 0.66 2 1 C-3.94 6.94 -9.88 12.88 -16 19 C-16.66 18.67 -17.32 18.34 -18 18 C-6.66287016 5.33029613 -6.66287016 5.33029613 0 0 Z " fill="#FF2626" transform="translate(105,81)"/>
</svg>
